<svg width="90" height="70" viewBox="0 0 90 70" fill="none" xmlns="http://www.w3.org/2000/svg">
<g clip-path="url(#clip0_20_17)">
<circle cx="5" cy="5" r="5" fill="#F3F3F3"/>
<circle cx="25" cy="5" r="5" fill="#F3F3F3"/>
<circle cx="45" cy="5" r="5" fill="#F3F3F3"/>
<circle cx="65" cy="5" r="5" fill="#F3F3F3"/>
<circle cx="85" cy="5" r="5" fill="#F3F3F3"/>
<circle cx="5" cy="25" r="5" fill="#F3F3F3"/>
<circle cx="25" cy="25" r="5" fill="#F3F3F3"/>
<circle cx="45" cy="25" r="5" fill="#F3F3F3"/>
<circle cx="65" cy="25" r="5" fill="#F3F3F3"/>
<circle cx="85" cy="25" r="5" fill="#F3F3F3"/>
<circle cx="5" cy="45" r="5" fill="#F3F3F3"/>
<circle cx="25" cy="45" r="5" fill="#F3F3F3"/>
<circle cx="45" cy="45" r="5" fill="#F3F3F3"/>
<circle cx="65" cy="45" r="5" fill="#F3F3F3"/>
<circle cx="85" cy="45" r="5" fill="#F3F3F3"/>
<circle cx="5" cy="65" r="5" fill="#F3F3F3"/>
<circle cx="25" cy="65" r="5" fill="#F3F3F3"/>
<circle cx="45" cy="65" r="5" fill="#F3F3F3"/>
<circle cx="65" cy="65" r="5" fill="#F3F3F3"/>
<circle cx="85" cy="65" r="5" fill="#F3F3F3"/>
</g>
<defs>
<clipPath id="clip0_20_17">
<rect width="90" height="70" fill="white"/>
</clipPath>
</defs>
</svg>
