<svg width="192" height="193" viewBox="0 0 192 193" fill="none" xmlns="http://www.w3.org/2000/svg">
<g clip-path="url(#clip0_13_2)">
<circle cx="2.5" cy="2.5" r="2.5" fill="#F3F3F3"/>
<circle cx="13.5" cy="2.5" r="2.5" fill="#F3F3F3"/>
<circle cx="24.5" cy="2.5" r="2.5" fill="#F3F3F3"/>
<circle cx="35.5" cy="2.5" r="2.5" fill="#F3F3F3"/>
<circle cx="46.5" cy="2.5" r="2.5" fill="#F3F3F3"/>
<circle cx="57.5" cy="2.5" r="2.5" fill="#F3F3F3"/>
<circle cx="68.5" cy="2.5" r="2.5" fill="#F3F3F3"/>
<circle cx="79.5" cy="2.5" r="2.5" fill="#F3F3F3"/>
<circle cx="90.5" cy="2.5" r="2.5" fill="#F3F3F3"/>
<circle cx="101.5" cy="2.5" r="2.5" fill="#F3F3F3"/>
<circle cx="112.5" cy="2.5" r="2.5" fill="#F3F3F3"/>
<circle cx="123.5" cy="2.5" r="2.5" fill="#F3F3F3"/>
<circle cx="134.5" cy="2.5" r="2.5" fill="#F3F3F3"/>
<circle cx="145.5" cy="2.5" r="2.5" fill="#F3F3F3"/>
<circle cx="156.5" cy="2.5" r="2.5" fill="#F3F3F3"/>
<circle cx="167.5" cy="2.5" r="2.5" fill="#F3F3F3"/>
<circle cx="178.5" cy="2.5" r="2.5" fill="#F3F3F3"/>
<circle cx="189.5" cy="2.5" r="2.5" fill="#F3F3F3"/>
<circle cx="2.5" cy="13.5" r="2.5" fill="#F3F3F3"/>
<circle cx="13.5" cy="13.5" r="2.5" fill="#F3F3F3"/>
<circle cx="24.5" cy="13.5" r="2.5" fill="#F3F3F3"/>
<circle cx="35.5" cy="13.5" r="2.5" fill="#F3F3F3"/>
<circle cx="46.5" cy="13.5" r="2.5" fill="#F3F3F3"/>
<circle cx="57.5" cy="13.5" r="2.5" fill="#F3F3F3"/>
<circle cx="68.5" cy="13.5" r="2.5" fill="#F3F3F3"/>
<circle cx="79.5" cy="13.5" r="2.5" fill="#F3F3F3"/>
<circle cx="90.5" cy="13.5" r="2.5" fill="#F3F3F3"/>
<circle cx="101.5" cy="13.5" r="2.5" fill="#F3F3F3"/>
<circle cx="112.5" cy="13.5" r="2.5" fill="#F3F3F3"/>
<circle cx="123.5" cy="13.5" r="2.5" fill="#F3F3F3"/>
<circle cx="134.5" cy="13.5" r="2.5" fill="#F3F3F3"/>
<circle cx="145.5" cy="13.5" r="2.5" fill="#F3F3F3"/>
<circle cx="156.5" cy="13.5" r="2.5" fill="#F3F3F3"/>
<circle cx="167.5" cy="13.5" r="2.5" fill="#F3F3F3"/>
<circle cx="178.5" cy="13.5" r="2.5" fill="#F3F3F3"/>
<circle cx="189.5" cy="13.5" r="2.5" fill="#F3F3F3"/>
<circle cx="2.5" cy="24.5" r="2.5" fill="#F3F3F3"/>
<circle cx="13.5" cy="24.5" r="2.5" fill="#F3F3F3"/>
<circle cx="24.5" cy="24.5" r="2.5" fill="#F3F3F3"/>
<circle cx="35.5" cy="24.5" r="2.5" fill="#F3F3F3"/>
<circle cx="46.5" cy="24.5" r="2.5" fill="#F3F3F3"/>
<circle cx="57.5" cy="24.5" r="2.5" fill="#F3F3F3"/>
<circle cx="68.5" cy="24.5" r="2.5" fill="#F3F3F3"/>
<circle cx="79.5" cy="24.5" r="2.5" fill="#F3F3F3"/>
<circle cx="90.5" cy="24.5" r="2.5" fill="#F3F3F3"/>
<circle cx="101.5" cy="24.5" r="2.5" fill="#F3F3F3"/>
<circle cx="112.5" cy="24.5" r="2.5" fill="#F3F3F3"/>
<circle cx="123.5" cy="24.5" r="2.5" fill="#F3F3F3"/>
<circle cx="134.5" cy="24.5" r="2.5" fill="#F3F3F3"/>
<circle cx="145.5" cy="24.5" r="2.5" fill="#F3F3F3"/>
<circle cx="156.5" cy="24.5" r="2.5" fill="#F3F3F3"/>
<circle cx="167.5" cy="24.5" r="2.5" fill="#F3F3F3"/>
<circle cx="178.5" cy="24.5" r="2.5" fill="#F3F3F3"/>
<circle cx="189.5" cy="24.5" r="2.5" fill="#F3F3F3"/>
<circle cx="2.5" cy="35.5" r="2.5" fill="#F3F3F3"/>
<circle cx="13.5" cy="35.5" r="2.5" fill="#F3F3F3"/>
<circle cx="24.5" cy="35.5" r="2.5" fill="#F3F3F3"/>
<circle cx="35.5" cy="35.5" r="2.5" fill="#F3F3F3"/>
<circle cx="46.5" cy="35.5" r="2.5" fill="#F3F3F3"/>
<circle cx="57.5" cy="35.5" r="2.5" fill="#F3F3F3"/>
<circle cx="68.5" cy="35.5" r="2.5" fill="#F3F3F3"/>
<circle cx="79.5" cy="35.5" r="2.5" fill="#F3F3F3"/>
<circle cx="90.5" cy="35.5" r="2.5" fill="#F3F3F3"/>
<circle cx="101.5" cy="35.5" r="2.5" fill="#F3F3F3"/>
<circle cx="112.5" cy="35.5" r="2.5" fill="#F3F3F3"/>
<circle cx="123.5" cy="35.5" r="2.5" fill="#F3F3F3"/>
<circle cx="134.5" cy="35.5" r="2.5" fill="#F3F3F3"/>
<circle cx="145.5" cy="35.5" r="2.5" fill="#F3F3F3"/>
<circle cx="156.5" cy="35.5" r="2.5" fill="#F3F3F3"/>
<circle cx="167.5" cy="35.5" r="2.5" fill="#F3F3F3"/>
<circle cx="178.5" cy="35.5" r="2.5" fill="#F3F3F3"/>
<circle cx="189.5" cy="35.5" r="2.5" fill="#F3F3F3"/>
<circle cx="2.5" cy="46.5" r="2.5" fill="#F3F3F3"/>
<circle cx="13.5" cy="46.5" r="2.5" fill="#F3F3F3"/>
<circle cx="24.5" cy="46.5" r="2.5" fill="#F3F3F3"/>
<circle cx="35.5" cy="46.5" r="2.5" fill="#F3F3F3"/>
<circle cx="46.5" cy="46.5" r="2.5" fill="#F3F3F3"/>
<circle cx="57.5" cy="46.5" r="2.5" fill="#F3F3F3"/>
<circle cx="68.5" cy="46.5" r="2.5" fill="#F3F3F3"/>
<circle cx="79.5" cy="46.5" r="2.5" fill="#F3F3F3"/>
<circle cx="90.5" cy="46.5" r="2.5" fill="#F3F3F3"/>
<circle cx="101.5" cy="46.5" r="2.5" fill="#F3F3F3"/>
<circle cx="112.5" cy="46.5" r="2.5" fill="#F3F3F3"/>
<circle cx="123.5" cy="46.5" r="2.5" fill="#F3F3F3"/>
<circle cx="134.5" cy="46.5" r="2.5" fill="#F3F3F3"/>
<circle cx="145.5" cy="46.5" r="2.5" fill="#F3F3F3"/>
<circle cx="156.5" cy="46.5" r="2.5" fill="#F3F3F3"/>
<circle cx="167.5" cy="46.5" r="2.5" fill="#F3F3F3"/>
<circle cx="178.5" cy="46.5" r="2.5" fill="#F3F3F3"/>
<circle cx="189.5" cy="46.5" r="2.5" fill="#F3F3F3"/>
<circle cx="2.5" cy="57.5" r="2.5" fill="#F3F3F3"/>
<circle cx="13.5" cy="57.5" r="2.5" fill="#F3F3F3"/>
<circle cx="24.5" cy="57.5" r="2.5" fill="#F3F3F3"/>
<circle cx="35.5" cy="57.5" r="2.5" fill="#F3F3F3"/>
<circle cx="46.5" cy="57.5" r="2.5" fill="#F3F3F3"/>
<circle cx="57.5" cy="57.5" r="2.5" fill="#F3F3F3"/>
<circle cx="68.5" cy="57.5" r="2.5" fill="#F3F3F3"/>
<circle cx="79.5" cy="57.5" r="2.5" fill="#F3F3F3"/>
<circle cx="90.5" cy="57.5" r="2.5" fill="#F3F3F3"/>
<circle cx="101.5" cy="57.5" r="2.5" fill="#F3F3F3"/>
<circle cx="112.5" cy="57.5" r="2.5" fill="#F3F3F3"/>
<circle cx="123.5" cy="57.5" r="2.5" fill="#F3F3F3"/>
<circle cx="134.5" cy="57.5" r="2.5" fill="#F3F3F3"/>
<circle cx="145.5" cy="57.5" r="2.5" fill="#F3F3F3"/>
<circle cx="156.5" cy="57.5" r="2.5" fill="#F3F3F3"/>
<circle cx="167.5" cy="57.5" r="2.5" fill="#F3F3F3"/>
<circle cx="178.5" cy="57.5" r="2.5" fill="#F3F3F3"/>
<circle cx="189.5" cy="57.5" r="2.5" fill="#F3F3F3"/>
<circle cx="2.5" cy="68.5" r="2.5" fill="#F3F3F3"/>
<circle cx="13.5" cy="68.5" r="2.5" fill="#F3F3F3"/>
<circle cx="24.5" cy="68.5" r="2.5" fill="#F3F3F3"/>
<circle cx="35.5" cy="68.5" r="2.5" fill="#F3F3F3"/>
<circle cx="46.5" cy="68.5" r="2.5" fill="#F3F3F3"/>
<circle cx="57.5" cy="68.5" r="2.5" fill="#F3F3F3"/>
<circle cx="68.5" cy="68.5" r="2.5" fill="#F3F3F3"/>
<circle cx="79.5" cy="68.5" r="2.5" fill="#F3F3F3"/>
<circle cx="90.5" cy="68.5" r="2.5" fill="#F3F3F3"/>
<circle cx="101.5" cy="68.5" r="2.5" fill="#F3F3F3"/>
<circle cx="112.5" cy="68.5" r="2.5" fill="#F3F3F3"/>
<circle cx="123.5" cy="68.5" r="2.5" fill="#F3F3F3"/>
<circle cx="134.5" cy="68.5" r="2.5" fill="#F3F3F3"/>
<circle cx="145.5" cy="68.5" r="2.5" fill="#F3F3F3"/>
<circle cx="156.5" cy="68.5" r="2.5" fill="#F3F3F3"/>
<circle cx="167.5" cy="68.5" r="2.5" fill="#F3F3F3"/>
<circle cx="178.5" cy="68.5" r="2.5" fill="#F3F3F3"/>
<circle cx="189.5" cy="68.5" r="2.5" fill="#F3F3F3"/>
<circle cx="2.5" cy="79.5" r="2.5" fill="#F3F3F3"/>
<circle cx="13.5" cy="79.5" r="2.5" fill="#F3F3F3"/>
<circle cx="24.5" cy="79.5" r="2.5" fill="#F3F3F3"/>
<circle cx="35.5" cy="79.5" r="2.5" fill="#F3F3F3"/>
<circle cx="46.5" cy="79.5" r="2.5" fill="#F3F3F3"/>
<circle cx="57.5" cy="79.5" r="2.5" fill="#F3F3F3"/>
<circle cx="68.5" cy="79.5" r="2.5" fill="#F3F3F3"/>
<circle cx="79.5" cy="79.5" r="2.5" fill="#F3F3F3"/>
<circle cx="90.5" cy="79.5" r="2.5" fill="#F3F3F3"/>
<circle cx="101.5" cy="79.5" r="2.5" fill="#F3F3F3"/>
<circle cx="112.5" cy="79.5" r="2.5" fill="#F3F3F3"/>
<circle cx="123.5" cy="79.5" r="2.5" fill="#F3F3F3"/>
<circle cx="134.5" cy="79.5" r="2.5" fill="#F3F3F3"/>
<circle cx="145.5" cy="79.5" r="2.5" fill="#F3F3F3"/>
<circle cx="156.5" cy="79.5" r="2.5" fill="#F3F3F3"/>
<circle cx="167.5" cy="79.5" r="2.5" fill="#F3F3F3"/>
<circle cx="178.5" cy="79.5" r="2.5" fill="#F3F3F3"/>
<circle cx="189.5" cy="79.5" r="2.5" fill="#F3F3F3"/>
<circle cx="2.5" cy="90.5" r="2.5" fill="#F3F3F3"/>
<circle cx="13.5" cy="90.5" r="2.5" fill="#F3F3F3"/>
<circle cx="24.5" cy="90.5" r="2.5" fill="#F3F3F3"/>
<circle cx="35.5" cy="90.5" r="2.5" fill="#F3F3F3"/>
<circle cx="46.5" cy="90.5" r="2.5" fill="#F3F3F3"/>
<circle cx="57.5" cy="90.5" r="2.5" fill="#F3F3F3"/>
<circle cx="68.5" cy="90.5" r="2.5" fill="#F3F3F3"/>
<circle cx="79.5" cy="90.5" r="2.5" fill="#F3F3F3"/>
<circle cx="90.5" cy="90.5" r="2.5" fill="#F3F3F3"/>
<circle cx="101.5" cy="90.5" r="2.5" fill="#F3F3F3"/>
<circle cx="112.5" cy="90.5" r="2.5" fill="#F3F3F3"/>
<circle cx="123.5" cy="90.5" r="2.5" fill="#F3F3F3"/>
<circle cx="134.5" cy="90.5" r="2.5" fill="#F3F3F3"/>
<circle cx="145.5" cy="90.5" r="2.5" fill="#F3F3F3"/>
<circle cx="156.5" cy="90.5" r="2.5" fill="#F3F3F3"/>
<circle cx="167.5" cy="90.5" r="2.5" fill="#F3F3F3"/>
<circle cx="178.5" cy="90.5" r="2.5" fill="#F3F3F3"/>
<circle cx="189.5" cy="90.5" r="2.5" fill="#F3F3F3"/>
<circle cx="2.5" cy="101.5" r="2.5" fill="#F3F3F3"/>
<circle cx="13.5" cy="101.5" r="2.5" fill="#F3F3F3"/>
<circle cx="24.5" cy="101.5" r="2.5" fill="#F3F3F3"/>
<circle cx="35.5" cy="101.5" r="2.5" fill="#F3F3F3"/>
<circle cx="46.5" cy="101.5" r="2.5" fill="#F3F3F3"/>
<circle cx="57.5" cy="101.5" r="2.5" fill="#F3F3F3"/>
<circle cx="68.5" cy="101.5" r="2.5" fill="#F3F3F3"/>
<circle cx="79.5" cy="101.5" r="2.5" fill="#F3F3F3"/>
<circle cx="90.5" cy="101.5" r="2.5" fill="#F3F3F3"/>
<circle cx="101.5" cy="101.5" r="2.5" fill="#F3F3F3"/>
<circle cx="112.5" cy="101.5" r="2.5" fill="#F3F3F3"/>
<circle cx="123.5" cy="101.5" r="2.5" fill="#F3F3F3"/>
<circle cx="134.5" cy="101.5" r="2.5" fill="#F3F3F3"/>
<circle cx="145.5" cy="101.5" r="2.5" fill="#F3F3F3"/>
<circle cx="156.5" cy="101.5" r="2.5" fill="#F3F3F3"/>
<circle cx="167.5" cy="101.5" r="2.5" fill="#F3F3F3"/>
<circle cx="178.5" cy="101.5" r="2.5" fill="#F3F3F3"/>
<circle cx="189.5" cy="101.5" r="2.5" fill="#F3F3F3"/>
<circle cx="2.5" cy="112.5" r="2.5" fill="#F3F3F3"/>
<circle cx="13.5" cy="112.5" r="2.5" fill="#F3F3F3"/>
<circle cx="24.5" cy="112.5" r="2.5" fill="#F3F3F3"/>
<circle cx="35.5" cy="112.5" r="2.5" fill="#F3F3F3"/>
<circle cx="46.5" cy="112.5" r="2.5" fill="#F3F3F3"/>
<circle cx="57.5" cy="112.5" r="2.5" fill="#F3F3F3"/>
<circle cx="68.5" cy="112.5" r="2.5" fill="#F3F3F3"/>
<circle cx="79.5" cy="112.5" r="2.5" fill="#F3F3F3"/>
<circle cx="90.5" cy="112.5" r="2.5" fill="#F3F3F3"/>
<circle cx="101.5" cy="112.5" r="2.5" fill="#F3F3F3"/>
<circle cx="112.5" cy="112.5" r="2.5" fill="#F3F3F3"/>
<circle cx="123.5" cy="112.5" r="2.5" fill="#F3F3F3"/>
<circle cx="134.5" cy="112.5" r="2.5" fill="#F3F3F3"/>
<circle cx="145.5" cy="112.5" r="2.5" fill="#F3F3F3"/>
<circle cx="156.5" cy="112.5" r="2.5" fill="#F3F3F3"/>
<circle cx="167.5" cy="112.5" r="2.5" fill="#F3F3F3"/>
<circle cx="178.5" cy="112.5" r="2.5" fill="#F3F3F3"/>
<circle cx="189.5" cy="112.5" r="2.5" fill="#F3F3F3"/>
<circle cx="2.5" cy="123.5" r="2.5" fill="#F3F3F3"/>
<circle cx="13.5" cy="123.5" r="2.5" fill="#F3F3F3"/>
<circle cx="24.5" cy="123.5" r="2.5" fill="#F3F3F3"/>
<circle cx="35.5" cy="123.5" r="2.5" fill="#F3F3F3"/>
<circle cx="46.5" cy="123.5" r="2.5" fill="#F3F3F3"/>
<circle cx="57.5" cy="123.5" r="2.5" fill="#F3F3F3"/>
<circle cx="68.5" cy="123.5" r="2.5" fill="#F3F3F3"/>
<circle cx="79.5" cy="123.5" r="2.5" fill="#F3F3F3"/>
<circle cx="90.5" cy="123.5" r="2.5" fill="#F3F3F3"/>
<circle cx="101.5" cy="123.5" r="2.5" fill="#F3F3F3"/>
<circle cx="112.5" cy="123.5" r="2.5" fill="#F3F3F3"/>
<circle cx="123.5" cy="123.5" r="2.5" fill="#F3F3F3"/>
<circle cx="134.5" cy="123.5" r="2.5" fill="#F3F3F3"/>
<circle cx="145.5" cy="123.5" r="2.5" fill="#F3F3F3"/>
<circle cx="156.5" cy="123.5" r="2.5" fill="#F3F3F3"/>
<circle cx="167.5" cy="123.5" r="2.5" fill="#F3F3F3"/>
<circle cx="178.5" cy="123.5" r="2.5" fill="#F3F3F3"/>
<circle cx="189.5" cy="123.5" r="2.5" fill="#F3F3F3"/>
<circle cx="2.5" cy="134.5" r="2.5" fill="#F3F3F3"/>
<circle cx="13.5" cy="134.5" r="2.5" fill="#F3F3F3"/>
<circle cx="24.5" cy="134.5" r="2.5" fill="#F3F3F3"/>
<circle cx="35.5" cy="134.5" r="2.5" fill="#F3F3F3"/>
<circle cx="46.5" cy="134.5" r="2.5" fill="#F3F3F3"/>
<circle cx="57.5" cy="134.5" r="2.5" fill="#F3F3F3"/>
<circle cx="68.5" cy="134.5" r="2.5" fill="#F3F3F3"/>
<circle cx="79.5" cy="134.5" r="2.5" fill="#F3F3F3"/>
<circle cx="90.5" cy="134.5" r="2.5" fill="#F3F3F3"/>
<circle cx="101.5" cy="134.5" r="2.5" fill="#F3F3F3"/>
<circle cx="112.5" cy="134.5" r="2.5" fill="#F3F3F3"/>
<circle cx="123.5" cy="134.5" r="2.5" fill="#F3F3F3"/>
<circle cx="134.5" cy="134.5" r="2.5" fill="#F3F3F3"/>
<circle cx="145.5" cy="134.5" r="2.5" fill="#F3F3F3"/>
<circle cx="156.5" cy="134.5" r="2.5" fill="#F3F3F3"/>
<circle cx="167.5" cy="134.5" r="2.5" fill="#F3F3F3"/>
<circle cx="178.5" cy="134.5" r="2.5" fill="#F3F3F3"/>
<circle cx="189.5" cy="134.5" r="2.5" fill="#F3F3F3"/>
<circle cx="2.5" cy="145.5" r="2.5" fill="#F3F3F3"/>
<circle cx="13.5" cy="145.5" r="2.5" fill="#F3F3F3"/>
<circle cx="24.5" cy="145.5" r="2.5" fill="#F3F3F3"/>
<circle cx="35.5" cy="145.5" r="2.5" fill="#F3F3F3"/>
<circle cx="46.5" cy="145.5" r="2.5" fill="#F3F3F3"/>
<circle cx="57.5" cy="145.5" r="2.5" fill="#F3F3F3"/>
<circle cx="68.5" cy="145.5" r="2.5" fill="#F3F3F3"/>
<circle cx="79.5" cy="145.5" r="2.5" fill="#F3F3F3"/>
<circle cx="90.5" cy="145.5" r="2.5" fill="#F3F3F3"/>
<circle cx="101.5" cy="145.5" r="2.5" fill="#F3F3F3"/>
<circle cx="112.5" cy="145.5" r="2.5" fill="#F3F3F3"/>
<circle cx="123.5" cy="145.5" r="2.5" fill="#F3F3F3"/>
<circle cx="134.5" cy="145.5" r="2.5" fill="#F3F3F3"/>
<circle cx="145.5" cy="145.5" r="2.5" fill="#F3F3F3"/>
<circle cx="156.5" cy="145.5" r="2.5" fill="#F3F3F3"/>
<circle cx="167.5" cy="145.5" r="2.5" fill="#F3F3F3"/>
<circle cx="178.5" cy="145.5" r="2.5" fill="#F3F3F3"/>
<circle cx="189.5" cy="145.5" r="2.5" fill="#F3F3F3"/>
<circle cx="2.5" cy="156.5" r="2.5" fill="#F3F3F3"/>
<circle cx="13.5" cy="156.5" r="2.5" fill="#F3F3F3"/>
<circle cx="24.5" cy="156.5" r="2.5" fill="#F3F3F3"/>
<circle cx="35.5" cy="156.5" r="2.5" fill="#F3F3F3"/>
<circle cx="46.5" cy="156.5" r="2.5" fill="#F3F3F3"/>
<circle cx="57.5" cy="156.5" r="2.5" fill="#F3F3F3"/>
<circle cx="68.5" cy="156.5" r="2.5" fill="#F3F3F3"/>
<circle cx="79.5" cy="156.5" r="2.5" fill="#F3F3F3"/>
<circle cx="90.5" cy="156.5" r="2.5" fill="#F3F3F3"/>
<circle cx="101.5" cy="156.5" r="2.5" fill="#F3F3F3"/>
<circle cx="112.5" cy="156.5" r="2.5" fill="#F3F3F3"/>
<circle cx="123.5" cy="156.5" r="2.5" fill="#F3F3F3"/>
<circle cx="134.5" cy="156.5" r="2.5" fill="#F3F3F3"/>
<circle cx="145.5" cy="156.5" r="2.5" fill="#F3F3F3"/>
<circle cx="156.5" cy="156.5" r="2.5" fill="#F3F3F3"/>
<circle cx="167.5" cy="156.5" r="2.5" fill="#F3F3F3"/>
<circle cx="178.5" cy="156.5" r="2.5" fill="#F3F3F3"/>
<circle cx="189.5" cy="156.5" r="2.5" fill="#F3F3F3"/>
<circle cx="2.5" cy="167.5" r="2.5" fill="#F3F3F3"/>
<circle cx="13.5" cy="167.5" r="2.5" fill="#F3F3F3"/>
<circle cx="24.5" cy="167.5" r="2.5" fill="#F3F3F3"/>
<circle cx="35.5" cy="167.5" r="2.5" fill="#F3F3F3"/>
<circle cx="46.5" cy="167.5" r="2.5" fill="#F3F3F3"/>
<circle cx="57.5" cy="167.5" r="2.5" fill="#F3F3F3"/>
<circle cx="68.5" cy="167.5" r="2.5" fill="#F3F3F3"/>
<circle cx="79.5" cy="167.5" r="2.5" fill="#F3F3F3"/>
<circle cx="90.5" cy="167.5" r="2.5" fill="#F3F3F3"/>
<circle cx="101.5" cy="167.5" r="2.5" fill="#F3F3F3"/>
<circle cx="112.5" cy="167.5" r="2.5" fill="#F3F3F3"/>
<circle cx="123.5" cy="167.5" r="2.5" fill="#F3F3F3"/>
<circle cx="134.5" cy="167.5" r="2.5" fill="#F3F3F3"/>
<circle cx="145.5" cy="167.5" r="2.5" fill="#F3F3F3"/>
<circle cx="156.5" cy="167.5" r="2.5" fill="#F3F3F3"/>
<circle cx="167.5" cy="167.5" r="2.5" fill="#F3F3F3"/>
<circle cx="178.5" cy="167.5" r="2.5" fill="#F3F3F3"/>
<circle cx="189.5" cy="167.5" r="2.5" fill="#F3F3F3"/>
<circle cx="2.5" cy="178.5" r="2.5" fill="#F3F3F3"/>
<circle cx="13.5" cy="178.5" r="2.5" fill="#F3F3F3"/>
<circle cx="24.5" cy="178.5" r="2.5" fill="#F3F3F3"/>
<circle cx="35.5" cy="178.5" r="2.5" fill="#F3F3F3"/>
<circle cx="46.5" cy="178.5" r="2.5" fill="#F3F3F3"/>
<circle cx="57.5" cy="178.5" r="2.5" fill="#F3F3F3"/>
<circle cx="68.5" cy="178.5" r="2.5" fill="#F3F3F3"/>
<circle cx="79.5" cy="178.5" r="2.5" fill="#F3F3F3"/>
<circle cx="90.5" cy="178.5" r="2.5" fill="#F3F3F3"/>
<circle cx="101.5" cy="178.5" r="2.5" fill="#F3F3F3"/>
<circle cx="112.5" cy="178.5" r="2.5" fill="#F3F3F3"/>
<circle cx="123.5" cy="178.5" r="2.5" fill="#F3F3F3"/>
<circle cx="134.5" cy="178.5" r="2.5" fill="#F3F3F3"/>
<circle cx="145.5" cy="178.5" r="2.5" fill="#F3F3F3"/>
<circle cx="156.5" cy="178.5" r="2.5" fill="#F3F3F3"/>
<circle cx="167.5" cy="178.5" r="2.5" fill="#F3F3F3"/>
<circle cx="178.5" cy="178.5" r="2.5" fill="#F3F3F3"/>
<circle cx="189.5" cy="178.5" r="2.5" fill="#F3F3F3"/>
<circle cx="2.5" cy="189.5" r="2.5" fill="#F3F3F3"/>
<circle cx="13.5" cy="189.5" r="2.5" fill="#F3F3F3"/>
<circle cx="24.5" cy="189.5" r="2.5" fill="#F3F3F3"/>
<circle cx="35.5" cy="189.5" r="2.5" fill="#F3F3F3"/>
<circle cx="46.5" cy="189.5" r="2.5" fill="#F3F3F3"/>
<circle cx="57.5" cy="189.5" r="2.5" fill="#F3F3F3"/>
<circle cx="68.5" cy="189.5" r="2.5" fill="#F3F3F3"/>
<circle cx="79.5" cy="189.5" r="2.5" fill="#F3F3F3"/>
<circle cx="90.5" cy="189.5" r="2.5" fill="#F3F3F3"/>
<circle cx="101.5" cy="189.5" r="2.5" fill="#F3F3F3"/>
<circle cx="112.5" cy="189.5" r="2.5" fill="#F3F3F3"/>
<circle cx="123.5" cy="189.5" r="2.5" fill="#F3F3F3"/>
<circle cx="134.5" cy="189.5" r="2.5" fill="#F3F3F3"/>
<circle cx="145.5" cy="189.5" r="2.5" fill="#F3F3F3"/>
<circle cx="156.5" cy="189.5" r="2.5" fill="#F3F3F3"/>
<circle cx="167.5" cy="189.5" r="2.5" fill="#F3F3F3"/>
<circle cx="178.5" cy="189.5" r="2.5" fill="#F3F3F3"/>
<circle cx="189.5" cy="189.5" r="2.5" fill="#F3F3F3"/>
</g>
<defs>
<clipPath id="clip0_13_2">
<rect width="192" height="193" fill="white"/>
</clipPath>
</defs>
</svg>
